<svg id="svg" version="1.1" xmlns="http://www.w3.org/2000/svg" xmlns:xlink="http://www.w3.org/1999/xlink" width="400" height="381.92090395480227" viewBox="0, 0, 400,381.92090395480227"><g id="svgg"><path id="path0" d="M80.832 60.314 C 80.719 60.498,80.615 73.237,80.601 88.623 L 80.577 116.598 81.551 117.874 C 82.533 119.161,88.330 125.170,101.419 138.465 C 105.335 142.443,108.826 146.182,109.175 146.774 C 109.525 147.367,109.965 147.851,110.153 147.851 C 110.413 147.851,122.246 159.590,124.355 161.939 C 124.565 162.174,130.375 167.996,137.265 174.879 C 144.155 181.761,150.732 188.338,151.880 189.494 C 153.028 190.649,153.966 191.814,153.965 192.081 C 153.964 192.348,154.390 192.761,154.911 192.998 C 155.433 193.236,155.955 193.733,156.073 194.102 C 156.190 194.472,156.666 195.037,157.130 195.357 C 158.287 196.156,164.850 202.689,174.212 212.359 C 178.520 216.809,183.044 221.144,184.267 221.993 L 186.490 223.538 234.506 223.373 C 278.391 223.223,282.626 223.154,283.739 222.572 C 285.154 221.832,288.588 221.209,291.265 221.206 C 292.745 221.204,293.308 221.013,293.985 220.282 C 294.603 219.615,295.433 219.286,296.990 219.092 C 298.291 218.929,299.140 218.638,299.140 218.353 C 299.140 217.568,300.498 216.596,302.386 216.027 C 303.370 215.731,304.516 215.055,304.933 214.526 C 305.350 213.996,305.945 213.563,306.256 213.563 C 306.567 213.563,307.001 213.047,307.221 212.416 C 307.440 211.786,307.857 211.270,308.147 211.270 C 308.437 211.270,308.951 210.847,309.290 210.330 C 309.629 209.813,310.227 209.288,310.619 209.163 C 311.012 209.039,311.813 208.179,312.400 207.252 C 312.987 206.326,313.734 205.561,314.060 205.554 C 314.386 205.546,315.037 204.723,315.506 203.725 C 316.880 200.803,317.798 199.276,318.552 198.654 C 318.941 198.335,319.370 197.514,319.507 196.832 C 319.643 196.149,320.188 195.123,320.718 194.552 C 321.464 193.747,321.681 193.108,321.681 191.713 C 321.681 190.441,321.865 189.811,322.309 189.562 C 322.798 189.289,323.017 188.247,323.294 184.888 C 323.831 178.359,324.407 178.797,315.291 178.797 C 302.911 178.797,242.859 178.010,225.788 177.624 C 217.068 177.427,208.816 177.273,207.450 177.282 C 202.833 177.313,200.967 176.726,199.236 174.697 C 198.395 173.712,197.149 172.346,196.466 171.661 C 195.783 170.977,195.224 170.251,195.224 170.048 C 195.224 169.845,194.911 169.580,194.529 169.458 C 194.146 169.337,192.985 168.194,191.950 166.918 C 190.914 165.642,187.779 162.249,184.984 159.377 C 182.188 156.505,179.266 153.403,178.489 152.485 C 177.713 151.567,175.272 148.922,173.066 146.608 C 167.994 141.289,167.183 140.422,164.901 137.886 C 163.877 136.748,160.904 133.617,158.295 130.929 C 155.685 128.241,153.257 125.565,152.898 124.982 C 152.280 123.980,149.259 120.794,141.643 113.112 C 138.048 109.486,137.768 108.867,139.277 107.878 C 140.186 107.283,145.137 107.253,209.526 107.457 C 278.118 107.674,287.855 107.551,290.153 106.442 C 291.346 105.866,295.314 104.521,297.545 103.935 C 298.243 103.752,299.103 103.349,299.455 103.039 C 299.807 102.730,300.826 102.109,301.719 101.660 C 302.612 101.211,303.343 100.702,303.343 100.528 C 303.343 100.354,304.657 99.327,306.263 98.247 C 307.870 97.166,310.062 95.281,311.134 94.058 C 312.207 92.834,313.394 91.500,313.772 91.093 C 314.898 89.879,317.096 86.308,317.096 85.693 C 317.096 85.378,317.599 84.651,318.213 84.077 C 318.869 83.465,319.440 82.444,319.598 81.604 C 319.745 80.818,320.274 79.689,320.774 79.096 C 321.273 78.503,321.681 77.769,321.681 77.466 C 321.681 77.162,322.146 75.468,322.715 73.701 C 323.623 70.877,323.751 69.862,323.765 65.330 L 323.782 60.172 202.411 60.076 C 133.243 60.021,80.950 60.124,80.832 60.314 M80.613 199.904 C 80.614 201.638,80.607 232.354,80.598 268.163 C 80.585 320.871,80.676 333.330,81.074 333.582 C 81.731 333.999,275.346 333.953,281.948 333.535 C 286.253 333.262,287.422 333.052,289.016 332.261 C 290.067 331.741,291.671 331.192,292.581 331.043 C 293.492 330.894,294.695 330.533,295.256 330.240 C 295.816 329.948,296.552 329.708,296.890 329.706 C 297.229 329.705,298.088 329.309,298.801 328.826 C 299.513 328.343,300.414 327.826,300.802 327.677 C 301.579 327.379,302.447 326.733,306.301 323.582 C 310.283 320.327,314.913 315.503,315.337 314.168 C 315.573 313.425,316.163 312.560,318.573 309.432 C 318.988 308.894,319.451 307.777,319.602 306.949 C 319.753 306.121,320.214 304.963,320.626 304.376 C 321.039 303.788,321.602 302.413,321.879 301.320 C 322.156 300.226,322.638 298.644,322.950 297.803 C 323.792 295.541,324.217 288.643,323.541 288.207 C 323.244 288.016,280.267 287.788,224.090 287.679 L 125.162 287.488 124.442 286.256 C 123.758 285.084,123.725 283.912,123.761 262.651 L 123.800 240.278 122.673 238.668 C 122.054 237.783,120.141 235.683,118.424 234.002 C 113.352 229.038,112.872 228.551,106.636 222.039 C 103.354 218.611,99.312 214.485,97.655 212.870 C 95.997 211.255,93.247 208.491,91.542 206.729 C 83.099 198.000,81.779 196.763,80.898 196.755 C 80.740 196.754,80.612 198.171,80.613 199.904 " stroke="none" fill="#393939" fill-rule="evenodd"></path><path id="path1" d="M80.508 57.692 C 80.136 57.926,79.468 58.188,79.023 58.273 C 78.579 58.359,78.110 58.534,77.981 58.664 C 77.478 59.167,77.719 117.866,78.223 117.765 C 78.632 117.683,78.905 118.695,78.743 119.686 C 78.716 119.849,78.953 120.083,79.271 120.204 C 79.588 120.326,79.847 120.665,79.847 120.958 C 79.847 121.250,80.105 121.490,80.420 121.490 C 80.735 121.490,80.993 121.748,80.993 122.063 C 80.993 122.378,81.251 122.636,81.566 122.636 C 81.882 122.636,82.139 122.801,82.139 123.002 C 82.139 123.486,87.098 128.586,87.133 128.139 C 87.148 127.949,87.294 128.138,87.458 128.558 C 87.622 128.978,87.997 129.322,88.291 129.322 C 88.585 129.322,88.825 129.504,88.825 129.727 C 88.825 130.224,93.503 134.862,94.004 134.862 C 94.203 134.862,94.365 135.119,94.365 135.435 C 94.365 135.750,94.623 136.008,94.938 136.008 C 95.253 136.008,95.511 136.266,95.511 136.581 C 95.511 136.896,95.769 137.154,96.084 137.154 C 96.399 137.154,96.657 137.412,96.657 137.727 C 96.657 138.042,96.915 138.300,97.230 138.300 C 97.545 138.300,97.803 138.558,97.803 138.873 C 97.803 139.188,98.061 139.446,98.376 139.446 C 98.691 139.446,98.949 139.704,98.949 140.019 C 98.949 140.334,99.207 140.592,99.522 140.592 C 99.838 140.592,100.096 140.850,100.096 141.165 C 100.096 141.480,100.353 141.738,100.669 141.738 C 100.984 141.738,101.242 141.996,101.242 142.311 C 101.242 142.627,101.500 142.884,101.815 142.884 C 102.130 142.884,102.388 143.142,102.388 143.457 C 102.388 143.773,102.646 144.031,102.961 144.031 C 103.276 144.031,103.539 144.245,103.545 144.508 C 103.550 144.771,105.611 147.135,108.123 149.761 C 110.635 152.388,113.768 155.691,115.085 157.101 C 116.401 158.512,117.693 159.672,117.956 159.680 C 118.219 159.688,118.434 159.880,118.434 160.107 C 118.434 160.622,121.908 164.120,122.301 164.000 C 122.460 163.952,122.698 164.253,122.830 164.669 C 122.962 165.085,123.230 165.425,123.426 165.425 C 123.622 165.425,123.782 165.693,123.782 166.021 C 123.782 166.348,123.956 166.509,124.168 166.378 C 124.379 166.247,124.712 166.538,124.907 167.024 C 125.102 167.510,125.273 167.758,125.286 167.575 C 125.300 167.392,125.566 167.454,125.879 167.714 C 126.192 167.973,126.337 168.365,126.202 168.584 C 126.055 168.823,126.143 168.866,126.423 168.693 C 126.720 168.509,126.966 168.696,127.100 169.207 C 127.215 169.648,127.548 170.010,127.838 170.010 C 128.129 170.010,128.367 170.267,128.367 170.583 C 128.367 170.898,128.625 171.156,128.940 171.156 C 129.255 171.156,129.513 171.414,129.513 171.729 C 129.513 172.044,129.679 172.302,129.882 172.302 C 130.363 172.302,132.951 174.890,132.951 175.371 C 132.951 175.574,133.209 175.740,133.524 175.740 C 133.840 175.740,134.097 175.998,134.097 176.313 C 134.097 176.628,134.269 176.886,134.479 176.886 C 134.986 176.886,136.390 178.306,136.390 178.819 C 136.390 179.042,136.549 179.125,136.744 179.005 C 136.939 178.884,137.209 179.134,137.345 179.561 C 137.480 179.987,137.750 180.237,137.945 180.117 C 138.140 179.996,138.300 180.066,138.300 180.273 C 138.300 180.670,139.345 181.771,142.253 184.440 C 143.230 185.337,144.031 186.176,144.031 186.305 C 144.031 186.561,146.659 189.112,146.923 189.112 C 147.252 189.112,148.615 190.651,148.615 191.022 C 148.615 191.232,148.787 191.404,148.997 191.404 C 149.493 191.404,150.907 192.819,150.907 193.314 C 150.907 193.524,151.165 193.696,151.480 193.696 C 151.796 193.696,152.053 193.954,152.053 194.269 C 152.053 194.585,152.311 194.842,152.627 194.842 C 152.942 194.842,153.200 195.100,153.200 195.415 C 153.200 195.731,153.457 195.989,153.773 195.989 C 154.088 195.989,154.346 196.226,154.346 196.517 C 154.346 196.808,154.707 197.140,155.148 197.255 C 155.659 197.389,155.846 197.635,155.662 197.932 C 155.472 198.240,155.533 198.300,155.841 198.110 C 156.138 197.927,156.384 198.114,156.517 198.624 C 156.633 199.066,156.873 199.427,157.052 199.427 C 157.366 199.427,161.295 203.307,163.790 206.082 C 164.466 206.834,165.207 207.450,165.436 207.450 C 165.665 207.450,165.754 207.609,165.633 207.804 C 165.513 207.999,165.757 208.268,166.176 208.401 C 166.595 208.534,166.898 208.792,166.850 208.975 C 166.802 209.158,167.364 209.756,168.099 210.305 C 168.835 210.853,169.432 211.424,169.426 211.573 C 169.408 212.064,170.522 213.145,170.842 212.947 C 171.014 212.841,171.156 212.907,171.156 213.096 C 171.156 213.565,174.908 217.383,175.369 217.383 C 175.573 217.383,175.740 217.641,175.740 217.956 C 175.740 218.271,175.998 218.529,176.313 218.529 C 176.628 218.529,176.886 218.725,176.886 218.965 C 176.886 219.204,177.187 219.647,177.555 219.948 C 177.923 220.249,177.979 220.369,177.681 220.214 C 177.330 220.031,177.398 220.288,177.872 220.938 C 178.554 221.873,179.198 222.170,180.134 221.981 C 180.344 221.939,180.385 222.034,180.226 222.194 C 179.811 222.609,181.470 224.260,182.302 224.260 C 182.685 224.260,182.956 224.475,182.904 224.737 C 182.746 225.523,287.029 225.617,287.680 224.831 C 288.003 224.442,288.874 224.260,290.412 224.260 C 292.066 224.260,292.728 224.107,292.890 223.687 C 293.042 223.288,293.664 223.114,294.932 223.114 C 296.086 223.114,296.929 222.903,297.230 222.541 C 297.492 222.225,298.179 221.968,298.758 221.968 C 299.337 221.968,300.025 221.710,300.287 221.394 C 300.548 221.079,301.085 220.821,301.479 220.821 C 301.874 220.821,302.197 220.564,302.197 220.248 C 302.197 219.927,302.538 219.675,302.973 219.675 C 303.400 219.675,303.848 219.417,303.969 219.102 C 304.090 218.787,304.514 218.529,304.912 218.529 C 305.310 218.529,305.635 218.271,305.635 217.956 C 305.635 217.641,305.941 217.383,306.314 217.383 C 306.688 217.383,307.558 216.867,308.248 216.237 C 308.938 215.606,309.592 215.091,309.702 215.091 C 309.812 215.091,310.478 214.532,311.183 213.849 C 311.888 213.166,313.504 211.598,314.774 210.364 C 316.044 209.129,316.990 207.969,316.876 207.785 C 316.762 207.601,316.827 207.450,317.020 207.450 C 317.491 207.450,320.153 203.101,320.153 202.330 C 320.153 201.994,320.411 201.719,320.726 201.719 C 321.041 201.719,321.299 201.396,321.299 201.002 C 321.299 200.607,321.557 200.071,321.872 199.809 C 322.187 199.547,322.445 199.032,322.445 198.663 C 322.445 198.294,322.703 197.778,323.018 197.517 C 323.333 197.255,323.591 196.565,323.591 195.983 C 323.591 195.400,323.839 194.829,324.141 194.713 C 324.473 194.586,324.738 193.848,324.810 192.857 C 324.887 191.793,325.097 191.247,325.406 191.309 C 325.754 191.378,325.883 190.627,325.883 188.539 C 325.883 186.354,326.009 185.673,326.412 185.673 C 326.822 185.673,326.954 184.822,327.000 181.853 C 327.044 179.091,326.933 178.032,326.599 178.032 C 326.346 178.032,326.252 177.919,326.391 177.780 C 326.530 177.641,326.058 177.129,325.342 176.643 L 324.041 175.759 294.910 175.745 C 274.721 175.735,265.627 175.605,265.284 175.321 C 264.991 175.077,263.466 174.956,261.541 175.022 C 259.755 175.084,258.182 175.023,258.045 174.887 C 257.909 174.751,248.941 174.625,238.116 174.608 C 227.291 174.590,216.779 174.429,214.757 174.249 C 210.367 173.858,210.019 173.834,206.170 173.644 C 204.156 173.545,202.953 173.300,202.510 172.899 C 202.147 172.571,201.659 172.302,201.425 172.302 C 201.192 172.302,200.279 171.446,199.398 170.401 C 198.516 169.356,197.642 168.595,197.455 168.710 C 197.269 168.826,197.140 168.778,197.170 168.605 C 197.326 167.711,197.088 166.937,196.727 167.160 C 196.502 167.299,196.225 167.051,196.109 166.610 C 195.994 166.168,195.662 165.807,195.371 165.807 C 195.080 165.807,194.842 165.549,194.842 165.234 C 194.842 164.919,194.585 164.661,194.269 164.661 C 193.954 164.661,193.696 164.403,193.696 164.088 C 193.696 163.773,193.438 163.515,193.123 163.515 C 192.808 163.515,192.550 163.257,192.550 162.942 C 192.550 162.627,192.292 162.369,191.977 162.369 C 191.662 162.369,191.404 162.111,191.404 161.796 C 191.404 161.480,191.146 161.223,190.831 161.223 C 190.516 161.223,190.258 160.965,190.258 160.649 C 190.258 160.334,190.000 160.076,189.685 160.076 C 189.370 160.076,189.112 159.886,189.112 159.654 C 189.112 158.911,186.768 156.243,186.345 156.504 C 186.111 156.649,186.048 156.576,186.198 156.334 C 186.342 156.102,186.122 155.732,185.710 155.511 C 185.298 155.291,184.851 154.764,184.717 154.341 C 184.582 153.917,184.331 153.658,184.158 153.765 C 183.842 153.960,183.207 152.878,183.320 152.340 C 183.354 152.182,183.123 152.053,182.808 152.053 C 182.493 152.053,182.235 151.880,182.235 151.669 C 182.235 151.457,181.032 150.083,179.561 148.615 C 178.090 147.147,176.886 145.869,176.886 145.776 C 176.886 145.374,170.793 139.554,170.588 139.759 C 170.463 139.884,170.263 139.608,170.142 139.147 C 170.021 138.686,169.783 138.395,169.612 138.501 C 169.440 138.607,169.191 138.347,169.056 137.923 C 168.922 137.500,168.623 137.154,168.392 137.154 C 168.161 137.154,168.072 137.053,168.195 136.930 C 168.509 136.617,167.268 135.240,166.885 135.477 C 166.712 135.583,166.571 135.397,166.571 135.063 C 166.571 134.729,166.313 134.357,165.998 134.236 C 165.683 134.115,165.425 133.776,165.425 133.483 C 165.425 133.191,165.167 132.951,164.852 132.951 C 164.537 132.951,164.279 132.693,164.279 132.378 C 164.279 132.063,164.107 131.805,163.897 131.805 C 163.401 131.805,161.987 130.390,161.987 129.895 C 161.987 129.685,161.729 129.513,161.414 129.513 C 161.098 129.513,160.840 129.255,160.840 128.940 C 160.840 128.625,160.583 128.367,160.267 128.367 C 159.952 128.367,159.694 128.109,159.694 127.794 C 159.694 127.479,159.436 127.221,159.121 127.221 C 158.806 127.221,158.548 127.027,158.548 126.789 C 158.548 126.552,157.603 125.449,156.447 124.339 C 155.291 123.229,154.346 122.133,154.346 121.905 C 154.346 121.677,154.088 121.490,153.773 121.490 C 153.457 121.490,153.200 121.324,153.200 121.121 C 153.200 120.918,152.592 120.144,151.850 119.401 C 151.107 118.659,150.334 118.052,150.131 118.052 C 149.927 118.052,149.761 117.837,149.761 117.574 C 149.760 117.013,146.880 114.213,146.549 114.451 C 146.425 114.540,146.403 114.505,146.500 114.372 C 146.792 113.975,145.932 112.663,145.540 112.906 C 145.340 113.029,145.177 112.868,145.177 112.548 C 145.177 112.228,144.828 111.779,144.402 111.551 C 143.976 111.323,143.720 110.986,143.834 110.802 C 143.947 110.619,143.737 110.389,143.367 110.293 C 142.996 110.196,170.835 110.097,205.231 110.073 C 246.558 110.044,267.848 110.158,268.004 110.411 C 268.310 110.905,278.613 110.919,279.107 110.425 C 279.309 110.223,282.191 110.036,285.512 110.009 C 290.324 109.970,291.592 109.851,291.756 109.422 C 291.870 109.125,292.430 108.883,293.000 108.883 C 293.571 108.883,294.712 108.554,295.536 108.154 C 296.360 107.753,297.165 107.505,297.323 107.603 C 297.482 107.701,297.612 107.613,297.612 107.407 C 297.612 107.201,298.128 106.920,298.758 106.781 C 299.389 106.643,299.904 106.385,299.904 106.208 C 299.904 106.031,300.420 105.774,301.051 105.635 C 301.681 105.497,302.197 105.244,302.197 105.073 C 302.197 104.902,302.634 104.653,303.167 104.519 C 303.701 104.385,304.035 104.109,303.909 103.905 C 303.783 103.701,303.862 103.512,304.084 103.486 C 304.896 103.390,305.092 103.299,306.781 102.224 C 307.727 101.623,308.638 100.898,308.806 100.613 C 308.974 100.328,309.361 100.096,309.666 100.096 C 309.970 100.096,310.220 99.838,310.220 99.522 C 310.220 99.207,310.392 98.949,310.602 98.949 C 310.812 98.949,311.307 98.649,311.702 98.281 C 312.098 97.913,312.863 97.268,313.404 96.848 C 313.945 96.428,314.395 95.911,314.404 95.698 C 314.414 95.486,314.766 95.098,315.186 94.836 C 315.606 94.573,315.950 94.120,315.950 93.829 C 315.950 93.538,316.219 93.197,316.548 93.071 C 316.876 92.945,317.038 92.669,316.907 92.457 C 316.776 92.246,316.894 92.068,317.169 92.063 C 317.652 92.053,319.007 89.591,319.007 88.723 C 319.007 88.489,319.205 88.175,319.448 88.025 C 319.740 87.844,319.784 87.921,319.580 88.252 C 319.375 88.583,319.420 88.660,319.712 88.480 C 319.954 88.330,320.153 87.787,320.153 87.274 C 320.153 86.700,320.373 86.342,320.726 86.342 C 321.041 86.342,321.299 86.019,321.299 85.625 C 321.299 85.230,321.557 84.693,321.872 84.432 C 322.187 84.170,322.445 83.654,322.445 83.286 C 322.445 82.917,322.703 82.401,323.018 82.139 C 323.333 81.878,323.591 81.190,323.591 80.611 C 323.591 80.032,323.849 79.345,324.164 79.083 C 324.479 78.822,324.737 78.027,324.737 77.317 C 324.737 76.425,324.914 76.027,325.310 76.027 C 325.766 76.027,325.883 75.472,325.883 73.325 C 325.883 71.523,326.061 70.446,326.417 70.090 C 327.458 69.049,327.265 59.646,326.187 58.883 C 324.704 57.832,309.769 57.360,298.376 58.005 C 293.162 58.300,294.262 58.347,307.594 58.396 C 320.064 58.443,322.812 58.547,323.178 58.988 C 323.423 59.283,324.063 59.634,324.602 59.770 C 325.677 60.039,325.718 62.435,324.746 68.195 C 324.534 69.456,324.359 71.476,324.358 72.684 C 324.356 73.892,324.209 74.881,324.031 74.881 C 323.620 74.881,322.566 77.335,322.227 79.083 C 322.084 79.819,321.856 80.506,321.720 80.611 C 321.187 81.022,320.153 82.908,320.153 83.467 C 320.153 83.792,319.809 84.352,319.389 84.711 C 318.968 85.071,318.625 85.495,318.625 85.653 C 318.625 87.608,311.716 95.758,307.259 99.062 C 305.525 100.347,304.107 101.535,304.107 101.702 C 304.107 101.869,303.938 102.006,303.731 102.006 C 303.524 102.006,302.516 102.521,301.492 103.152 C 300.467 103.782,299.430 104.298,299.186 104.298 C 298.942 104.298,298.040 104.742,297.182 105.284 C 296.323 105.826,294.994 106.367,294.228 106.487 C 293.463 106.607,292.498 106.937,292.083 107.221 C 291.669 107.504,290.972 107.736,290.536 107.736 C 290.099 107.736,289.528 107.951,289.265 108.214 C 288.935 108.544,286.909 108.731,282.692 108.821 C 279.339 108.892,276.682 109.089,276.787 109.258 C 276.892 109.428,276.701 109.672,276.364 109.802 C 275.927 109.970,275.814 109.872,275.971 109.463 C 276.192 108.887,143.900 108.335,140.783 108.899 L 139.637 109.107 141.643 111.114 C 142.746 112.218,143.649 113.285,143.649 113.485 C 143.649 113.685,143.906 113.849,144.222 113.849 C 144.537 113.849,144.795 114.010,144.795 114.207 C 144.795 114.404,146.274 116.080,148.082 117.932 C 149.890 119.784,151.972 121.987,152.710 122.827 C 154.644 125.032,159.173 129.991,161.548 132.505 C 162.673 133.696,164.564 135.784,165.751 137.146 C 166.938 138.507,169.628 141.364,171.729 143.494 C 173.830 145.624,176.151 148.097,176.886 148.988 C 177.622 149.880,179.857 152.292,181.853 154.349 C 185.139 157.734,190.993 163.937,194.460 167.707 C 199.598 173.293,201.591 175.112,202.904 175.408 C 204.377 175.740,225.156 176.427,235.985 176.500 C 239.598 176.525,243.122 176.712,243.817 176.917 C 244.607 177.149,259.846 177.269,284.403 177.236 L 323.725 177.182 324.645 178.820 C 325.548 180.427,325.553 180.498,324.960 182.613 C 324.627 183.799,324.355 185.824,324.355 187.114 C 324.355 188.962,324.160 189.747,323.436 190.815 C 322.930 191.560,322.398 193.029,322.254 194.079 C 322.110 195.129,321.848 195.989,321.673 195.989 C 321.498 195.989,320.902 196.891,320.349 197.994 C 319.166 200.354,317.698 202.874,317.141 203.501 C 316.923 203.746,316.639 204.369,316.509 204.887 C 316.310 205.679,313.908 208.109,306.743 214.766 C 305.639 215.791,302.038 218.134,301.522 218.163 C 301.368 218.171,300.646 218.687,299.919 219.309 C 299.100 220.009,298.166 220.439,297.466 220.439 C 296.844 220.439,296.042 220.705,295.684 221.029 C 295.326 221.353,294.367 221.723,293.553 221.852 C 292.739 221.980,291.951 222.272,291.803 222.500 C 291.654 222.728,290.568 222.916,289.388 222.918 C 287.746 222.922,287.156 223.079,286.869 223.591 C 286.347 224.524,183.763 224.645,183.763 223.712 C 183.763 223.411,183.457 223.068,183.084 222.950 C 182.212 222.673,179.042 219.622,177.088 217.179 C 176.253 216.136,175.221 215.030,174.795 214.722 C 173.439 213.741,169.408 209.577,169.143 208.883 C 169.002 208.515,168.697 208.214,168.463 208.214 C 168.020 208.214,164.661 204.779,164.661 204.325 C 164.661 204.181,164.290 203.945,163.837 203.802 C 162.915 203.509,161.231 201.835,161.206 201.186 C 161.197 200.954,160.682 200.342,160.060 199.827 C 159.439 199.311,158.930 198.667,158.930 198.394 C 158.930 198.122,158.672 197.899,158.357 197.899 C 158.042 197.899,157.784 197.727,157.784 197.517 C 157.784 197.307,157.526 197.135,157.211 197.135 C 156.896 197.135,156.638 196.877,156.638 196.562 C 156.638 196.246,156.422 195.989,156.158 195.989 C 155.894 195.989,155.450 195.473,155.171 194.842 C 154.892 194.212,154.434 193.696,154.154 193.696 C 153.873 193.696,153.297 193.138,152.873 192.455 C 152.448 191.772,151.728 190.955,151.273 190.640 C 150.393 190.032,145.559 185.273,145.559 185.015 C 145.559 184.902,128.915 168.006,126.449 165.616 C 126.232 165.406,124.899 164.069,123.486 162.645 C 122.073 161.220,118.529 157.696,115.611 154.813 C 112.692 151.929,109.856 149.093,109.307 148.510 C 108.758 147.926,107.493 146.611,106.495 145.587 C 105.497 144.562,104.680 143.535,104.680 143.304 C 104.680 143.073,104.437 142.884,104.139 142.884 C 103.842 142.884,103.035 142.173,102.346 141.304 C 100.669 139.186,96.323 134.862,95.872 134.862 C 95.673 134.862,95.511 134.722,95.511 134.551 C 95.511 134.380,93.276 131.993,90.544 129.247 C 87.813 126.500,85.578 124.061,85.578 123.826 C 85.578 123.592,85.418 123.400,85.223 123.400 C 84.703 123.400,82.139 120.901,82.139 120.394 C 82.139 120.156,81.952 119.962,81.723 119.962 C 81.139 119.962,79.875 118.370,79.860 117.615 C 79.853 117.270,79.568 116.880,79.226 116.749 C 78.658 116.531,78.626 114.127,78.842 88.341 C 78.973 72.848,79.080 60.043,79.081 59.885 C 79.082 59.728,79.504 59.599,80.019 59.599 C 80.534 59.599,81.101 59.338,81.280 59.019 C 81.566 58.507,85.427 58.440,114.030 58.448 C 131.864 58.454,146.381 58.383,146.290 58.292 C 146.198 58.201,134.521 58.036,120.340 57.925 C 106.159 57.814,91.547 57.621,87.870 57.495 C 83.245 57.337,80.976 57.397,80.508 57.692 M238.586 58.074 C 210.000 58.266,210.171 58.269,249.666 58.284 C 271.729 58.292,288.491 58.249,286.915 58.189 C 280.092 57.926,265.727 57.892,238.586 58.074 M261.223 175.622 C 260.855 175.718,260.253 175.718,259.885 175.622 C 259.518 175.525,259.819 175.447,260.554 175.447 C 261.289 175.447,261.590 175.525,261.223 175.622 M78.606 192.688 L 77.555 193.080 77.555 197.208 C 77.555 199.706,77.404 201.337,77.173 201.337 C 76.595 201.337,76.654 232.375,77.233 232.954 C 77.568 233.289,77.551 233.546,77.162 234.015 C 76.731 234.535,76.736 234.688,77.197 234.974 C 77.667 235.267,77.670 235.438,77.216 236.170 C 76.840 236.776,76.812 237.065,77.121 237.168 C 77.442 237.275,77.555 250.232,77.555 286.956 L 77.555 336.600 78.540 336.974 C 79.807 337.456,279.785 337.480,279.487 336.999 C 279.372 336.813,279.544 336.559,279.869 336.434 C 280.207 336.304,280.360 336.369,280.227 336.585 C 279.929 337.067,280.532 337.079,281.012 336.602 C 281.212 336.403,282.393 336.188,283.637 336.124 C 287.546 335.923,286.821 335.053,282.744 335.053 C 280.617 335.053,279.274 335.205,279.274 335.446 C 279.274 335.680,278.345 335.812,276.982 335.771 C 275.721 335.733,274.690 335.580,274.690 335.432 C 274.690 335.283,231.237 335.139,178.128 335.112 C 125.019 335.084,81.270 335.060,80.908 335.057 C 80.545 335.055,79.965 334.504,79.619 333.834 C 78.630 331.921,78.733 196.046,79.723 195.320 C 80.916 194.446,81.367 194.797,88.960 202.483 C 93.111 206.686,96.713 210.124,96.964 210.124 C 97.216 210.124,97.421 210.256,97.421 210.418 C 97.421 210.580,99.226 212.568,101.433 214.837 C 103.639 217.105,105.444 219.208,105.444 219.509 C 105.444 219.811,105.599 220.057,105.789 220.057 C 106.237 220.057,108.398 221.968,111.115 224.766 C 112.304 225.989,115.531 229.256,118.287 232.024 C 121.043 234.793,123.401 237.359,123.528 237.727 C 123.655 238.095,123.936 238.395,124.152 238.395 C 124.419 238.395,124.546 245.842,124.546 261.368 C 124.546 287.214,124.573 287.468,127.146 286.488 C 128.561 285.949,322.286 286.115,323.499 286.656 C 324.648 287.168,325.414 288.774,325.080 289.971 C 324.933 290.497,324.796 292.650,324.775 294.758 C 324.742 298.088,324.638 298.674,323.973 299.243 C 323.553 299.603,323.209 300.232,323.209 300.642 C 323.209 301.052,323.037 301.494,322.827 301.624 C 322.617 301.754,322.445 302.537,322.445 303.365 C 322.445 304.362,322.187 305.130,321.681 305.635 C 321.261 306.055,320.917 306.657,320.917 306.972 C 320.917 307.287,320.745 307.545,320.535 307.545 C 320.325 307.545,320.153 308.067,320.153 308.703 C 320.153 309.380,319.915 309.953,319.580 310.082 C 319.265 310.202,319.007 310.503,319.007 310.748 C 319.007 310.994,318.491 311.760,317.861 312.450 C 317.230 313.141,316.714 314.124,316.714 314.637 C 316.714 315.210,316.494 315.568,316.141 315.568 C 315.826 315.568,315.568 315.826,315.568 316.141 C 315.568 316.457,315.310 316.714,314.995 316.714 C 314.680 316.714,314.419 316.929,314.415 317.192 C 314.407 317.787,310.027 322.445,309.477 322.445 C 309.255 322.445,309.074 322.622,309.074 322.839 C 309.074 323.056,308.786 323.344,308.434 323.479 C 307.618 323.792,306.399 325.003,306.399 325.501 C 306.399 325.712,306.160 325.883,305.867 325.883 C 305.574 325.883,305.236 326.141,305.115 326.457 C 304.994 326.772,304.546 327.030,304.119 327.030 C 303.684 327.030,303.343 327.281,303.343 327.603 C 303.343 327.959,302.982 328.176,302.388 328.176 C 301.438 328.176,299.904 329.356,299.904 330.086 C 299.904 330.296,299.235 330.468,298.417 330.468 C 297.448 330.468,296.853 330.667,296.710 331.041 C 296.589 331.356,296.055 331.614,295.523 331.614 C 294.991 331.614,294.556 331.764,294.556 331.946 C 294.556 332.129,293.756 332.369,292.779 332.479 C 291.710 332.600,290.865 332.924,290.659 333.293 C 290.416 333.727,289.763 333.906,288.424 333.906 C 286.969 333.906,286.533 334.043,286.533 334.500 C 286.533 334.986,287.009 335.079,289.188 335.015 C 290.873 334.966,291.815 334.784,291.767 334.518 C 291.723 334.274,292.440 334.049,293.475 333.982 C 294.456 333.919,295.466 333.618,295.718 333.314 C 295.971 333.009,296.479 332.760,296.848 332.760 C 297.217 332.760,297.733 332.502,297.994 332.187 C 298.256 331.872,298.793 331.614,299.187 331.614 C 299.582 331.614,299.904 331.356,299.904 331.041 C 299.904 330.659,300.287 330.468,301.051 330.468 C 301.736 330.468,302.158 330.285,302.101 330.013 C 302.049 329.763,302.350 329.488,302.770 329.403 C 303.190 329.318,303.706 329.067,303.916 328.847 C 304.178 328.571,304.130 328.542,303.761 328.752 C 303.402 328.957,303.315 328.912,303.497 328.617 C 303.647 328.374,304.190 328.176,304.703 328.176 C 305.277 328.176,305.635 327.956,305.635 327.603 C 305.635 327.287,305.875 327.030,306.167 327.030 C 306.460 327.030,306.798 326.772,306.919 326.457 C 307.040 326.141,307.360 325.879,307.629 325.875 C 308.253 325.863,311.206 323.208,311.079 322.772 C 311.027 322.592,311.113 322.465,311.270 322.490 C 312.058 322.615,312.512 322.389,312.512 321.872 C 312.512 321.557,312.719 321.342,312.972 321.394 C 313.225 321.447,313.440 321.232,313.450 320.917 C 313.459 320.602,313.709 320.344,314.005 320.344 C 314.301 320.344,314.817 319.789,315.151 319.111 C 315.486 318.433,315.953 317.874,316.189 317.869 C 316.426 317.864,316.724 317.333,316.853 316.689 C 316.983 316.038,317.259 315.624,317.474 315.757 C 317.687 315.888,317.861 315.642,317.861 315.209 C 317.861 314.764,318.110 314.422,318.434 314.422 C 318.749 314.422,319.007 314.120,319.007 313.750 C 319.007 313.380,319.479 312.567,320.057 311.944 C 320.635 311.321,321.129 310.678,321.156 310.515 C 321.182 310.353,321.225 309.962,321.251 309.647 C 321.277 309.331,321.519 309.074,321.789 309.074 C 322.058 309.074,322.316 308.620,322.362 308.065 C 322.408 307.510,322.694 306.865,322.999 306.632 C 323.303 306.399,323.604 305.521,323.667 304.680 C 323.740 303.707,323.956 303.187,324.260 303.247 C 324.522 303.300,324.717 303.214,324.692 303.056 C 324.479 301.708,324.809 299.537,325.215 299.618 C 325.544 299.684,325.729 299.005,325.810 297.427 C 325.874 296.170,326.156 294.880,326.436 294.562 C 327.324 293.553,327.238 286.875,326.328 286.099 C 325.924 285.755,325.516 285.239,325.420 284.953 C 325.275 284.515,309.362 284.401,226.138 284.241 L 127.030 284.050 126.793 262.846 C 126.561 242.151,126.294 237.259,125.378 236.953 C 125.131 236.871,124.928 236.560,124.928 236.262 C 124.928 235.965,124.670 235.721,124.355 235.721 C 124.040 235.721,123.782 235.463,123.782 235.148 C 123.782 234.833,123.524 234.575,123.209 234.575 C 122.894 234.575,122.636 234.441,122.636 234.276 C 122.636 233.942,118.946 229.990,118.633 229.990 C 118.386 229.990,116.905 228.528,116.905 228.284 C 116.905 228.186,116.347 227.520,115.664 226.804 C 114.981 226.088,114.018 225.008,113.524 224.404 C 113.030 223.799,112.760 223.563,112.924 223.878 C 113.088 224.193,112.693 223.892,112.045 223.209 C 111.398 222.526,110.679 221.968,110.448 221.968 C 110.218 221.968,110.029 221.796,110.029 221.585 C 110.029 221.375,109.685 220.860,109.265 220.439 C 108.844 220.019,108.500 219.762,108.500 219.867 C 108.500 219.973,107.856 219.341,107.068 218.462 C 106.280 217.584,105.291 216.501,104.871 216.056 C 104.451 215.610,103.592 214.610,102.963 213.831 C 102.334 213.053,101.603 212.416,101.339 212.416 C 101.075 212.416,100.860 212.093,100.860 211.697 C 100.860 211.287,100.514 210.887,100.057 210.768 C 99.615 210.652,99.368 210.374,99.507 210.150 C 99.653 209.913,99.439 209.742,98.994 209.742 C 98.574 209.742,98.108 209.544,97.958 209.301 C 97.774 209.003,97.860 208.963,98.222 209.176 C 98.718 209.468,98.229 208.802,96.562 206.916 C 96.194 206.500,95.882 206.321,95.869 206.518 C 95.855 206.715,95.685 206.479,95.490 205.993 C 95.295 205.506,94.962 205.216,94.750 205.347 C 94.538 205.478,94.365 205.368,94.365 205.104 C 94.365 204.575,90.661 200.955,90.119 200.955 C 89.933 200.955,89.780 200.735,89.780 200.467 C 89.780 199.916,88.214 198.438,87.775 198.574 C 87.617 198.623,87.488 198.470,87.488 198.233 C 87.488 197.325,82.610 192.959,81.347 192.736 C 80.663 192.616,80.002 192.467,79.879 192.406 C 79.757 192.346,79.183 192.472,78.606 192.688 " stroke="none" fill="#979797" fill-rule="evenodd"></path><path id="path2" d="M162.082 58.357 C 170.855 58.414,185.210 58.414,193.983 58.357 C 202.755 58.300,195.578 58.253,178.032 58.253 C 160.487 58.253,153.309 58.300,162.082 58.357 M290.258 58.340 C 290.731 58.431,291.504 58.431,291.977 58.340 C 292.450 58.249,292.063 58.175,291.117 58.175 C 290.172 58.175,289.785 58.249,290.258 58.340 M159.217 59.493 C 159.900 59.578,161.017 59.578,161.700 59.493 C 162.383 59.408,161.824 59.339,160.458 59.339 C 159.093 59.339,158.534 59.408,159.217 59.493 M191.887 59.491 C 192.468 59.579,193.327 59.576,193.797 59.486 C 194.267 59.395,193.792 59.323,192.741 59.326 C 191.691 59.329,191.306 59.403,191.887 59.491 M261.605 59.493 C 262.287 59.578,263.405 59.578,264.088 59.493 C 264.771 59.408,264.212 59.339,262.846 59.339 C 261.480 59.339,260.922 59.408,261.605 59.493 M274.599 59.487 C 275.074 59.578,275.761 59.575,276.127 59.479 C 276.492 59.384,276.103 59.309,275.263 59.313 C 274.422 59.317,274.123 59.396,274.599 59.487 M79.559 60.076 C 79.349 60.339,79.302 60.897,79.455 61.317 C 79.688 61.958,79.762 61.882,79.915 60.840 C 80.119 59.449,80.097 59.403,79.559 60.076 M79.426 68.672 C 79.404 72.192,79.322 84.132,79.242 95.206 C 79.155 107.259,79.238 115.428,79.449 115.559 C 79.663 115.691,79.815 105.253,79.834 89.025 C 79.852 74.311,79.776 62.273,79.666 62.273 C 79.555 62.273,79.447 65.153,79.426 68.672 M324.030 71.889 C 323.999 72.449,323.874 73.223,323.753 73.608 C 323.546 74.269,323.557 74.270,323.969 73.629 C 324.208 73.256,324.333 72.483,324.246 71.910 L 324.088 70.869 324.030 71.889 M310.393 95.989 L 308.883 97.612 310.506 96.102 C 312.016 94.698,312.305 94.365,312.016 94.365 C 311.954 94.365,311.223 95.096,310.393 95.989 M141.146 108.133 C 140.662 108.307,141.002 108.403,142.120 108.406 C 143.066 108.408,155.788 108.500,170.392 108.611 C 195.132 108.798,195.588 108.790,177.077 108.499 C 166.151 108.327,153.764 108.114,149.551 108.025 C 145.338 107.936,141.556 107.985,141.146 108.133 M285.960 108.118 L 285.196 108.447 285.960 108.468 C 286.380 108.479,286.982 108.322,287.297 108.118 C 288.057 107.628,287.102 107.628,285.960 108.118 M206.582 108.776 C 207.260 108.861,208.463 108.862,209.256 108.779 C 210.049 108.697,209.494 108.628,208.023 108.626 C 206.552 108.624,205.904 108.692,206.582 108.776 M221.681 108.781 C 222.679 108.860,224.312 108.860,225.310 108.781 C 226.309 108.703,225.492 108.638,223.496 108.638 C 221.500 108.638,220.683 108.703,221.681 108.781 M236.179 108.785 C 238.007 108.855,241.102 108.855,243.056 108.785 C 245.010 108.716,243.515 108.659,239.733 108.658 C 235.950 108.658,234.351 108.715,236.179 108.785 M275.350 108.776 C 276.028 108.861,277.231 108.862,278.024 108.779 C 278.817 108.697,278.262 108.628,276.791 108.626 C 275.320 108.624,274.671 108.692,275.350 108.776 M141.738 112.130 C 142.880 113.286,143.899 114.231,144.004 114.231 C 144.110 114.231,143.262 113.286,142.120 112.130 C 140.979 110.974,139.959 110.029,139.854 110.029 C 139.749 110.029,140.597 110.974,141.738 112.130 M83.699 121.968 C 83.787 122.020,84.374 122.493,85.005 123.018 L 86.151 123.973 85.225 122.923 C 84.715 122.345,84.128 121.872,83.919 121.872 C 83.711 121.872,83.612 121.915,83.699 121.968 M157.211 128.749 C 158.459 130.010,159.565 131.041,159.670 131.041 C 159.776 131.041,158.841 130.010,157.593 128.749 C 156.346 127.488,155.239 126.457,155.134 126.457 C 155.029 126.457,155.963 127.488,157.211 128.749 M163.133 134.981 C 163.133 135.047,163.691 135.606,164.374 136.223 L 165.616 137.345 164.494 136.103 C 163.448 134.946,163.133 134.686,163.133 134.981 M109.456 148.476 C 109.666 148.661,110.439 149.326,111.173 149.955 L 112.509 151.098 111.555 150.013 C 111.031 149.416,110.258 148.750,109.838 148.533 C 109.417 148.317,109.245 148.291,109.456 148.476 M117.479 156.256 C 118.938 157.727,120.218 158.930,120.323 158.930 C 120.428 158.930,119.320 157.727,117.861 156.256 C 116.401 154.785,115.121 153.582,115.016 153.582 C 114.911 153.582,116.019 154.785,117.479 156.256 M186.437 159.885 C 187.150 160.621,187.819 161.223,187.924 161.223 C 188.030 161.223,187.532 160.621,186.819 159.885 C 186.107 159.150,185.438 158.548,185.332 158.548 C 185.227 158.548,185.725 159.150,186.437 159.885 M131.423 170.201 C 132.136 170.936,132.805 171.538,132.910 171.538 C 133.015 171.538,132.518 170.936,131.805 170.201 C 131.092 169.465,130.423 168.863,130.318 168.863 C 130.213 168.863,130.710 169.465,131.423 170.201 M200.191 174.781 C 200.191 175.043,202.530 176.203,202.705 176.028 C 202.788 175.945,202.256 175.591,201.523 175.242 C 200.791 174.892,200.191 174.685,200.191 174.781 M259.885 175.622 C 260.253 175.718,260.855 175.718,261.223 175.622 C 261.590 175.525,261.289 175.447,260.554 175.447 C 259.819 175.447,259.518 175.525,259.885 175.622 M205.444 176.392 C 205.917 176.483,206.691 176.483,207.163 176.392 C 207.636 176.301,207.249 176.226,206.304 176.226 C 205.358 176.226,204.971 176.301,205.444 176.392 M220.746 176.789 C 222.911 176.858,226.350 176.857,228.387 176.789 C 230.425 176.720,228.653 176.664,224.451 176.665 C 220.248 176.665,218.581 176.721,220.746 176.789 M236.772 177.168 C 237.875 177.245,239.680 177.245,240.783 177.168 C 241.886 177.091,240.984 177.028,238.777 177.028 C 236.571 177.028,235.669 177.091,236.772 177.168 M250.143 177.554 C 253.348 177.618,258.591 177.618,261.796 177.554 C 265.000 177.490,262.378 177.438,255.969 177.438 C 249.561 177.438,246.939 177.490,250.143 177.554 M272.815 177.432 C 272.905 177.522,283.980 177.633,297.425 177.679 C 317.371 177.747,322.118 177.861,323.206 178.299 L 324.541 178.835 323.700 178.052 C 322.922 177.327,272.091 176.708,272.815 177.432 M324.047 186.457 C 324.006 187.833,323.802 189.166,323.593 189.419 C 323.383 189.672,323.478 189.648,323.803 189.366 C 324.253 188.976,324.362 188.267,324.258 186.404 L 324.120 183.954 324.047 186.457 M79.924 195.683 C 79.671 195.935,79.476 196.408,79.489 196.734 C 79.503 197.079,79.664 196.951,79.874 196.425 C 80.171 195.684,80.420 195.568,81.283 195.768 C 82.061 195.949,82.183 195.912,81.757 195.624 C 80.998 195.110,80.480 195.127,79.924 195.683 M85.769 199.809 C 87.016 201.070,88.123 202.101,88.228 202.101 C 88.333 202.101,87.398 201.070,86.151 199.809 C 84.903 198.548,83.797 197.517,83.692 197.517 C 83.586 197.517,84.521 198.548,85.769 199.809 M79.652 262.846 C 79.652 298.672,79.697 313.329,79.752 295.415 C 79.807 277.502,79.807 248.190,79.752 230.277 C 79.697 212.364,79.652 227.020,79.652 262.846 M163.133 202.603 C 163.133 202.697,163.764 203.256,164.535 203.844 C 165.307 204.433,165.817 204.719,165.670 204.481 C 165.368 203.992,163.133 202.338,163.133 202.603 M92.264 206.686 C 93.298 207.736,94.231 208.596,94.336 208.596 C 94.441 208.596,93.680 207.736,92.646 206.686 C 91.611 205.635,90.678 204.776,90.573 204.776 C 90.468 204.776,91.229 205.635,92.264 206.686 M312.685 208.691 L 311.175 210.315 312.798 208.805 C 313.691 207.974,314.422 207.244,314.422 207.181 C 314.422 206.892,314.089 207.181,312.685 208.691 M96.848 210.888 C 97.883 211.939,98.816 212.798,98.921 212.798 C 99.026 212.798,98.265 211.939,97.230 210.888 C 96.195 209.838,95.263 208.978,95.158 208.978 C 95.053 208.978,95.813 209.838,96.848 210.888 M309.435 211.557 L 308.118 212.989 309.551 211.673 C 310.339 210.949,310.984 210.304,310.984 210.240 C 310.984 209.949,310.660 210.223,309.435 211.557 M101.226 215.186 C 102.809 216.873,103.152 217.176,103.152 216.889 C 103.152 216.828,102.335 216.012,101.337 215.075 L 99.522 213.372 101.226 215.186 M177.940 217.574 C 178.377 218.204,179.560 219.494,180.570 220.439 C 182.201 221.967,182.154 221.882,180.149 219.675 C 177.131 216.353,177.019 216.247,177.940 217.574 M300.403 218.366 L 299.331 219.349 300.573 218.485 C 301.256 218.010,301.815 217.568,301.815 217.502 C 301.815 217.201,301.392 217.459,300.403 218.366 M285.780 223.099 C 285.471 223.294,285.334 223.570,285.475 223.711 C 285.617 223.853,286.011 223.690,286.351 223.350 C 287.023 222.678,286.682 222.528,285.780 223.099 M110.029 224.451 C 110.741 225.186,111.411 225.788,111.516 225.788 C 111.621 225.788,111.124 225.186,110.411 224.451 C 109.698 223.715,109.029 223.114,108.924 223.114 C 108.819 223.114,109.316 223.715,110.029 224.451 M268.290 224.163 C 270.549 224.230,274.245 224.230,276.504 224.163 C 278.763 224.095,276.915 224.040,272.397 224.040 C 267.880 224.040,266.032 224.095,268.290 224.163 M124.340 256.925 C 124.340 266.170,124.390 269.898,124.450 265.208 C 124.511 260.518,124.511 252.954,124.450 248.398 C 124.389 243.842,124.340 247.679,124.340 256.925 M124.307 280.611 C 124.308 282.923,124.371 283.819,124.447 282.603 C 124.523 281.387,124.522 279.496,124.445 278.401 C 124.369 277.305,124.306 278.300,124.307 280.611 M128.276 286.803 C 128.751 286.895,129.439 286.891,129.804 286.795 C 130.169 286.700,129.780 286.625,128.940 286.629 C 128.099 286.634,127.800 286.712,128.276 286.803 M147.924 286.818 C 150.591 286.884,155.061 286.884,157.857 286.819 C 160.654 286.753,158.472 286.700,153.009 286.699 C 147.545 286.699,145.257 286.753,147.924 286.818 M232.202 286.816 C 233.524 286.891,235.587 286.890,236.787 286.815 C 237.987 286.739,236.905 286.678,234.384 286.679 C 231.862 286.680,230.881 286.741,232.202 286.816 M324.444 290.735 C 324.444 291.471,324.523 291.772,324.619 291.404 C 324.715 291.036,324.715 290.435,324.619 290.067 C 324.523 289.699,324.444 290.000,324.444 290.735 M321.225 305.158 C 320.552 305.941,320.047 306.781,320.249 306.781 C 320.327 306.781,320.772 306.266,321.239 305.635 C 322.159 304.390,322.151 304.080,321.225 305.158 M79.179 329.513 C 79.184 330.353,79.262 330.652,79.353 330.177 C 79.445 329.702,79.441 329.014,79.346 328.649 C 79.250 328.284,79.175 328.672,79.179 329.513 M282.330 334.288 L 280.229 334.546 282.594 334.608 C 283.895 334.642,285.066 334.499,285.196 334.288 C 285.326 334.078,285.207 333.934,284.932 333.969 C 284.657 334.003,283.486 334.147,282.330 334.288 M82.999 334.949 C 83.787 335.031,85.076 335.031,85.864 334.949 C 86.652 334.866,86.008 334.799,84.432 334.799 C 82.856 334.799,82.211 334.866,82.999 334.949 M89.685 334.950 C 90.578 335.031,92.039 335.031,92.932 334.950 C 93.825 334.870,93.095 334.804,91.309 334.804 C 89.522 334.804,88.792 334.870,89.685 334.950 M210.793 334.940 C 211.266 335.031,212.039 335.031,212.512 334.940 C 212.985 334.849,212.598 334.775,211.652 334.775 C 210.707 334.775,210.320 334.849,210.793 334.940 M223.018 334.955 C 224.962 335.024,228.142 335.024,230.086 334.955 C 232.030 334.886,230.439 334.829,226.552 334.829 C 222.665 334.829,221.074 334.886,223.018 334.955 M240.981 334.947 C 241.668 335.032,242.699 335.031,243.273 334.943 C 243.847 334.856,243.286 334.787,242.025 334.789 C 240.764 334.791,240.294 334.862,240.981 334.947 M275.350 334.946 C 276.028 335.031,277.231 335.032,278.024 334.949 C 278.817 334.867,278.262 334.798,276.791 334.796 C 275.320 334.794,274.671 334.862,275.350 334.946 " stroke="none" fill="#7c7c7c" fill-rule="evenodd"></path><path id="path3" d="M86.092 58.369 C 82.454 58.452,81.402 58.596,81.235 59.031 C 81.049 59.516,96.367 59.584,202.334 59.569 C 307.660 59.554,323.585 59.479,323.190 59.003 C 322.779 58.507,105.345 57.925,86.092 58.369 M79.081 59.885 C 79.080 60.043,78.973 72.828,78.843 88.296 C 78.661 109.850,78.713 116.485,79.061 116.701 C 79.771 117.140,80.059 116.568,79.543 115.742 C 79.063 114.973,79.193 60.730,79.677 59.948 C 79.795 59.756,79.710 59.599,79.488 59.599 C 79.265 59.599,79.082 59.728,79.081 59.885 M324.669 63.312 C 324.817 67.695,325.026 67.708,325.340 63.354 C 325.523 60.805,325.462 60.047,325.061 59.892 C 324.647 59.733,324.570 60.401,324.669 63.312 M323.287 75.073 C 322.805 76.069,322.488 76.961,322.584 77.057 C 322.679 77.152,322.870 76.875,323.008 76.440 C 323.146 76.005,323.518 75.390,323.835 75.073 C 324.152 74.757,324.356 74.220,324.288 73.881 C 324.213 73.509,323.816 73.983,323.287 75.073 M320.975 81.061 C 320.492 81.969,320.362 82.369,320.685 81.948 C 321.008 81.528,321.463 80.963,321.695 80.694 C 321.928 80.424,322.058 80.024,321.986 79.806 C 321.913 79.588,321.458 80.152,320.975 81.061 M319.281 84.271 C 318.768 84.956,318.737 85.129,319.156 84.968 C 319.462 84.851,319.815 84.485,319.941 84.156 C 320.298 83.226,320.027 83.273,319.281 84.271 M316.812 88.348 C 316.271 89.030,315.511 90.544,315.708 90.544 C 315.800 90.544,316.230 89.943,316.664 89.207 C 317.452 87.871,317.525 87.447,316.812 88.348 M313.642 92.667 C 312.705 93.625,312.197 94.295,312.512 94.157 C 313.058 93.918,315.826 90.926,315.501 90.926 C 315.415 90.926,314.579 91.710,313.642 92.667 M310.581 96.180 L 309.265 97.612 310.697 96.296 C 312.031 95.070,312.306 94.747,312.014 94.747 C 311.950 94.747,311.305 95.392,310.581 96.180 M307.531 98.595 L 306.208 99.769 307.641 98.741 C 308.907 97.832,309.319 97.421,308.964 97.421 C 308.903 97.421,308.258 97.949,307.531 98.595 M304.475 100.844 C 303.747 101.466,303.270 101.982,303.415 101.990 C 303.559 101.999,304.242 101.490,304.933 100.860 C 306.553 99.380,306.201 99.368,304.475 100.844 M301.242 102.970 L 300.096 103.931 301.528 103.122 C 302.316 102.676,302.961 102.243,302.961 102.159 C 302.961 101.774,302.293 102.089,301.242 102.970 M296.717 105.107 C 295.909 105.533,295.328 105.962,295.427 106.060 C 295.609 106.242,298.376 104.732,298.376 104.451 C 298.376 104.235,298.348 104.246,296.717 105.107 M291.691 106.972 C 291.060 107.390,290.721 107.732,290.937 107.734 C 291.153 107.735,291.677 107.493,292.101 107.196 C 292.525 106.899,293.380 106.581,294.000 106.489 L 295.129 106.323 293.983 106.268 C 293.352 106.238,292.321 106.555,291.691 106.972 M287.522 108.023 C 287.365 108.181,285.402 108.416,283.160 108.547 L 279.083 108.784 283.935 108.738 C 287.253 108.706,288.938 108.540,289.265 108.214 C 289.647 107.832,289.548 107.736,288.774 107.736 C 288.242 107.736,287.678 107.865,287.522 108.023 M140.974 108.474 C 140.446 108.617,141.889 108.771,144.200 108.818 C 146.500 108.865,148.305 108.837,148.212 108.755 C 147.868 108.455,141.899 108.223,140.974 108.474 M151.194 108.782 C 152.297 108.859,154.102 108.859,155.205 108.782 C 156.309 108.705,155.406 108.642,153.200 108.642 C 150.993 108.642,150.091 108.705,151.194 108.782 M247.851 108.780 C 248.744 108.861,250.205 108.861,251.098 108.780 C 251.991 108.700,251.261 108.634,249.475 108.634 C 247.689 108.634,246.958 108.700,247.851 108.780 M258.739 108.786 C 261.628 108.851,266.356 108.851,269.245 108.786 C 272.135 108.721,269.771 108.668,263.992 108.668 C 258.214 108.668,255.850 108.721,258.739 108.786 M139.749 109.483 C 140.198 110.305,143.649 113.761,143.649 113.389 C 143.649 113.259,142.680 112.161,141.497 110.949 C 140.314 109.737,139.527 109.078,139.749 109.483 M146.709 116.823 C 146.711 116.973,148.368 118.805,150.390 120.893 C 152.413 122.981,153.884 124.357,153.660 123.950 C 153.171 123.062,146.703 116.430,146.709 116.823 M79.860 117.980 C 79.883 118.457,81.356 120.032,81.655 119.900 C 81.816 119.829,81.476 119.309,80.898 118.745 C 80.320 118.180,79.853 117.836,79.860 117.980 M82.139 120.582 C 82.139 120.778,82.483 121.233,82.904 121.592 C 83.324 121.952,83.668 122.103,83.668 121.927 C 83.668 121.752,83.324 121.297,82.904 120.917 C 82.483 120.537,82.139 120.386,82.139 120.582 M85.578 123.899 C 85.578 124.233,90.524 129.424,90.536 129.104 C 90.541 128.983,89.427 127.700,88.061 126.251 C 86.695 124.802,85.578 123.744,85.578 123.899 M156.688 127.794 C 159.190 130.409,160.827 131.804,159.085 129.837 C 156.603 127.034,154.534 124.928,154.262 124.928 C 154.088 124.928,155.180 126.218,156.688 127.794 M90.939 129.370 C 90.953 129.744,93.983 132.870,93.983 132.511 C 93.983 132.385,93.295 131.551,92.455 130.659 C 91.614 129.767,90.932 129.187,90.939 129.370 M163.109 134.704 C 167.047 138.894,168.075 139.900,166.587 138.109 C 164.630 135.752,161.410 132.346,160.808 131.996 C 160.511 131.823,161.546 133.042,163.109 134.704 M94.378 132.834 C 94.395 133.258,95.877 135.005,96.061 134.820 C 96.143 134.738,95.795 134.188,95.287 133.599 C 94.780 133.009,94.371 132.665,94.378 132.834 M96.657 135.044 C 96.657 135.206,97.732 136.409,99.045 137.719 C 100.358 139.028,101.954 140.752,102.592 141.551 C 103.229 142.350,103.917 142.933,104.120 142.848 C 104.323 142.763,102.727 140.906,100.573 138.722 C 98.419 136.537,96.657 134.882,96.657 135.044 M170.476 142.706 C 171.047 143.307,171.583 143.722,171.667 143.628 C 171.751 143.534,171.283 143.042,170.628 142.535 L 169.436 141.613 170.476 142.706 M173.066 145.368 C 174.329 146.671,174.594 146.875,174.594 146.543 C 174.594 146.288,172.269 144.031,172.006 144.031 C 171.876 144.031,172.353 144.632,173.066 145.368 M174.985 146.940 C 174.996 147.385,176.485 149.284,176.496 148.866 C 176.500 148.689,176.160 148.107,175.740 147.573 C 175.320 147.039,174.980 146.754,174.985 146.940 M110.634 149.936 C 111.457 150.663,112.275 151.265,112.453 151.273 C 112.630 151.282,112.055 150.688,111.175 149.952 C 109.106 148.224,108.680 148.211,110.634 149.936 M177.230 149.570 C 177.874 150.816,178.403 151.507,178.400 151.098 C 178.399 150.888,178.046 150.287,177.616 149.761 C 177.097 149.127,176.968 149.063,177.230 149.570 M116.325 155.412 C 118.423 157.557,120.232 159.312,120.347 159.312 C 120.597 159.312,114.721 153.328,113.422 152.260 C 112.922 151.849,114.228 153.267,116.325 155.412 M182.998 155.778 C 183.498 156.461,183.967 157.020,184.039 157.020 C 184.330 157.020,183.382 155.587,182.756 155.078 C 182.343 154.743,182.435 155.010,182.998 155.778 M120.726 159.814 C 120.726 159.880,121.285 160.438,121.968 161.056 L 123.209 162.178 122.087 160.936 C 121.041 159.779,120.726 159.519,120.726 159.814 M189.635 162.878 C 190.503 163.789,192.022 165.465,193.011 166.603 C 194.000 167.741,194.816 168.569,194.826 168.442 C 194.835 168.315,194.456 167.784,193.983 167.262 C 193.510 166.740,192.114 165.168,190.881 163.768 C 189.647 162.368,188.507 161.223,188.348 161.223 C 188.188 161.223,188.767 161.968,189.635 162.878 M126.839 165.671 C 126.839 166.094,128.267 167.717,128.639 167.717 C 128.773 167.717,128.465 167.245,127.956 166.667 C 127.446 166.089,126.987 165.544,126.934 165.457 C 126.882 165.369,126.839 165.466,126.839 165.671 M195.239 168.812 C 195.262 169.187,200.955 175.120,200.955 174.768 C 200.955 174.598,199.666 173.133,198.090 171.514 C 196.514 169.894,195.231 168.678,195.239 168.812 M129.895 168.904 C 129.895 169.012,130.767 170.005,131.834 171.111 C 132.900 172.218,133.602 172.809,133.392 172.426 C 132.989 171.687,129.895 168.571,129.895 168.904 M135.435 174.588 C 136.275 175.531,137.006 176.376,137.058 176.467 C 137.111 176.557,137.236 176.549,137.337 176.449 C 137.437 176.348,136.707 175.503,135.713 174.570 L 133.907 172.875 135.435 174.588 M202.544 175.786 C 202.826 175.964,204.690 176.100,206.686 176.086 C 211.172 176.056,210.778 175.856,205.791 175.631 C 203.651 175.534,202.252 175.601,202.544 175.786 M214.040 176.407 C 215.879 176.477,218.887 176.477,220.726 176.407 C 222.564 176.337,221.060 176.279,217.383 176.279 C 213.706 176.279,212.202 176.337,214.040 176.407 M233.811 176.717 C 235.034 176.981,244.645 177.116,243.744 176.856 C 243.219 176.704,240.640 176.583,238.013 176.587 C 235.387 176.590,233.496 176.649,233.811 176.717 M138.300 177.716 C 139.257 178.649,139.742 178.821,139.272 178.060 C 139.134 177.837,138.644 177.459,138.183 177.219 C 137.424 176.825,137.435 176.872,138.300 177.716 M322.428 177.145 C 324.119 177.872,324.547 178.784,324.515 181.590 L 324.483 184.336 325.023 182.396 C 325.678 180.042,324.475 177.154,322.772 176.992 C 322.253 176.943,322.107 177.008,322.428 177.145 M268.672 177.547 C 269.460 177.629,270.750 177.629,271.538 177.547 C 272.326 177.464,271.681 177.397,270.105 177.397 C 268.529 177.397,267.884 177.464,268.672 177.547 M142.120 181.260 C 142.120 181.499,143.650 183.037,144.796 183.952 C 145.320 184.370,144.976 183.899,144.031 182.904 C 142.322 181.105,142.120 180.932,142.120 181.260 M145.559 184.972 C 145.559 185.261,150.309 189.974,151.273 190.640 C 151.728 190.955,152.448 191.772,152.873 192.455 C 153.297 193.138,153.809 193.696,154.010 193.696 C 154.533 193.696,153.799 192.842,150.334 189.420 C 146.247 185.382,145.559 184.741,145.559 184.972 M323.231 190.310 C 322.113 192.144,322.258 192.550,323.419 190.839 C 323.955 190.050,324.308 189.319,324.204 189.215 C 324.100 189.111,323.662 189.604,323.231 190.310 M155.241 195.030 C 155.484 195.554,155.818 195.984,155.983 195.986 C 156.334 195.989,155.647 194.602,155.144 194.290 C 154.954 194.173,154.998 194.506,155.241 195.030 M79.725 195.320 C 79.063 195.806,78.567 327.405,79.225 328.063 C 79.357 328.195,79.465 298.553,79.465 262.193 C 79.465 191.467,79.382 194.671,81.199 195.368 C 81.543 195.500,81.698 195.437,81.564 195.220 C 81.246 194.706,80.507 194.746,79.725 195.320 M320.917 196.371 C 320.451 197.025,320.174 197.665,320.302 197.793 C 320.430 197.921,320.535 197.858,320.535 197.652 C 320.535 197.447,320.896 196.891,321.337 196.417 C 321.779 195.944,322.055 195.471,321.952 195.368 C 321.849 195.265,321.383 195.716,320.917 196.371 M82.139 195.929 C 82.139 196.107,82.483 196.563,82.904 196.944 C 83.324 197.324,83.668 197.523,83.668 197.385 C 83.668 197.247,83.324 196.791,82.904 196.371 C 82.483 195.950,82.139 195.752,82.139 195.929 M156.638 196.547 C 156.638 196.870,156.896 197.135,157.211 197.135 C 157.526 197.135,157.784 197.335,157.784 197.580 C 157.784 197.826,157.901 197.910,158.043 197.767 C 158.185 197.625,157.927 197.160,157.470 196.734 C 156.802 196.112,156.638 196.075,156.638 196.547 M86.533 200.191 C 87.354 201.032,88.111 201.719,88.216 201.719 C 88.321 201.719,87.736 201.032,86.915 200.191 C 86.094 199.351,85.337 198.663,85.232 198.663 C 85.127 198.663,85.712 199.351,86.533 200.191 M318.941 200.096 C 317.984 201.224,316.720 203.629,317.084 203.629 C 317.272 203.629,317.532 203.299,317.660 202.894 C 317.789 202.490,318.311 201.544,318.821 200.793 C 319.812 199.333,319.869 199.000,318.941 200.096 M161.223 201.293 C 161.223 201.842,162.982 203.530,163.837 203.802 C 164.290 203.945,164.661 204.181,164.661 204.325 C 164.661 204.712,168.103 208.338,168.291 208.149 C 168.478 207.962,164.727 204.019,162.640 202.209 C 161.860 201.532,161.223 201.120,161.223 201.293 M91.500 205.540 C 93.382 207.431,95.008 208.978,95.113 208.978 C 95.218 208.978,93.764 207.431,91.882 205.540 C 89.999 203.649,88.373 202.101,88.268 202.101 C 88.163 202.101,89.617 203.649,91.500 205.540 M312.225 209.190 C 310.072 211.318,308.309 213.156,308.309 213.273 C 308.309 213.389,310.152 211.706,312.404 209.532 C 314.656 207.358,316.418 205.520,316.320 205.449 C 316.222 205.378,314.379 207.061,312.225 209.190 M169.245 209.171 C 169.245 209.277,170.277 210.422,171.538 211.714 C 172.798 213.007,173.830 213.900,173.830 213.700 C 173.830 213.500,173.322 212.914,172.700 212.399 C 172.079 211.883,171.563 211.324,171.554 211.157 C 171.525 210.614,169.245 208.654,169.245 209.171 M97.823 211.557 C 98.546 212.345,99.291 213.161,99.477 213.372 C 99.674 213.594,99.675 213.498,99.478 213.141 C 98.950 212.184,97.120 210.124,96.798 210.124 C 96.638 210.124,97.099 210.769,97.823 211.557 M174.788 214.626 C 175.210 214.987,176.241 216.136,177.080 217.179 C 179.054 219.634,182.217 222.674,183.084 222.950 C 183.457 223.068,183.763 223.411,183.763 223.712 C 183.763 224.100,184.180 224.243,185.196 224.203 C 186.341 224.157,186.418 224.113,185.582 223.987 C 184.069 223.757,180.221 220.340,176.313 215.754 C 175.473 214.768,174.613 213.963,174.403 213.966 C 174.193 213.968,174.366 214.265,174.788 214.626 M306.197 214.721 C 305.811 215.148,304.571 216.026,303.441 216.672 C 302.312 217.318,301.460 217.920,301.550 218.009 C 301.838 218.298,305.847 215.737,306.534 214.827 C 307.356 213.737,307.147 213.671,306.197 214.721 M104.131 218.241 C 104.748 218.923,105.296 219.553,105.349 219.642 C 105.401 219.730,105.444 219.627,105.444 219.413 C 105.444 218.955,103.699 217.001,103.290 217.001 C 103.135 217.001,103.514 217.559,104.131 218.241 M300.284 218.723 C 300.021 219.040,299.012 219.543,298.041 219.842 C 296.466 220.327,296.401 220.389,297.436 220.413 C 298.405 220.435,301.913 218.222,301.002 218.163 C 300.870 218.154,300.547 218.406,300.284 218.723 M113.300 227.507 C 117.419 231.605,120.904 234.952,121.044 234.946 C 121.184 234.941,119.494 233.155,117.287 230.978 C 115.081 228.801,112.304 226.012,111.115 224.780 C 108.890 222.475,106.258 220.057,105.973 220.057 C 105.884 220.057,109.181 223.410,113.300 227.507 M289.589 222.315 C 288.665 222.578,288.676 222.595,289.915 222.848 C 291.240 223.119,291.882 222.949,291.882 222.327 C 291.882 221.920,290.997 221.915,289.589 222.315 M286.458 223.243 C 286.176 223.525,285.691 223.855,285.380 223.977 C 284.998 224.127,285.087 224.209,285.654 224.230 C 286.117 224.246,286.632 224.027,286.801 223.743 C 286.969 223.458,287.364 223.128,287.679 223.009 C 288.149 222.831,288.137 222.787,287.611 222.762 C 287.258 222.745,286.739 222.962,286.458 223.243 M206.399 224.164 C 217.063 224.221,234.513 224.221,245.177 224.164 C 255.840 224.108,247.116 224.062,225.788 224.062 C 204.460 224.062,195.735 224.108,206.399 224.164 M122.051 236.407 C 122.670 237.063,123.252 237.525,123.343 237.434 C 123.589 237.188,122.625 236.124,121.717 235.638 C 121.138 235.328,121.228 235.535,122.051 236.407 M124.561 284.814 C 124.562 285.024,124.915 285.626,125.345 286.151 C 125.863 286.785,125.993 286.849,125.731 286.342 C 125.087 285.096,124.558 284.405,124.561 284.814 M127.086 286.468 C 126.436 286.737,170.605 286.861,281.253 286.900 C 319.170 286.913,323.599 286.977,324.137 287.515 C 324.467 287.846,324.737 287.936,324.737 287.716 C 324.737 286.232,326.710 286.262,225.215 286.218 C 171.633 286.194,127.475 286.307,127.086 286.468 M324.737 289.567 C 324.737 290.210,324.803 290.735,324.884 290.735 C 325.208 290.735,325.376 288.793,325.068 288.603 C 324.886 288.490,324.737 288.924,324.737 289.567 M324.434 295.002 C 324.381 297.244,324.201 298.368,323.878 298.483 C 323.615 298.577,323.532 298.795,323.693 298.967 C 324.410 299.734,324.761 298.296,324.641 295.094 L 324.512 291.691 324.434 295.002 M322.124 303.464 C 322.091 304.056,321.633 305.103,321.108 305.792 C 320.072 307.150,319.943 307.545,320.535 307.545 C 320.745 307.545,320.917 307.287,320.917 306.972 C 320.917 306.657,321.271 306.045,321.704 305.613 C 322.262 305.054,322.446 304.473,322.338 303.607 C 322.193 302.446,322.182 302.439,322.124 303.464 M319.293 309.868 C 318.926 310.082,318.625 310.507,318.625 310.812 C 318.625 311.116,318.453 311.366,318.243 311.366 C 318.032 311.366,317.861 311.559,317.861 311.795 C 317.861 312.091,318.038 312.076,318.434 311.748 C 318.749 311.486,319.007 311.097,319.007 310.884 C 319.007 310.670,319.308 310.267,319.675 309.987 C 320.467 309.386,320.241 309.316,319.293 309.868 M313.112 318.442 C 312.540 318.972,312.128 319.541,312.196 319.705 C 312.265 319.870,312.811 319.436,313.409 318.741 C 314.703 317.240,314.562 317.099,313.112 318.442 M310.482 320.973 C 310.101 321.388,309.847 321.900,309.917 322.109 C 309.986 322.318,310.432 321.964,310.907 321.321 C 311.863 320.027,311.569 319.786,310.482 320.973 M306.748 324.309 C 305.851 325.226,305.537 325.883,305.995 325.883 C 306.217 325.883,306.399 325.688,306.399 325.448 C 306.399 325.209,306.700 324.793,307.067 324.524 C 307.435 324.256,307.649 323.958,307.545 323.863 C 307.440 323.768,307.082 323.968,306.748 324.309 M304.339 326.488 C 304.196 326.861,304.281 327.035,304.560 326.942 C 305.131 326.752,305.446 325.883,304.944 325.883 C 304.739 325.883,304.466 326.156,304.339 326.488 M300.254 328.894 C 299.357 329.810,299.042 330.468,299.500 330.468 C 299.722 330.468,299.904 330.272,299.904 330.033 C 299.904 329.793,300.205 329.377,300.572 329.109 C 300.940 328.840,301.155 328.542,301.050 328.447 C 300.945 328.352,300.587 328.553,300.254 328.894 M295.915 331.072 C 295.295 331.525,295.276 331.614,295.797 331.614 C 296.140 331.614,296.534 331.431,296.673 331.207 C 297.078 330.551,296.715 330.487,295.915 331.072 M79.114 331.729 C 79.045 334.129,82.530 336.700,83.940 335.290 C 84.070 335.159,83.676 335.050,83.063 335.047 C 81.116 335.037,80.079 334.238,79.591 332.370 C 79.236 331.007,79.138 330.877,79.114 331.729 M292.837 331.996 C 292.196 332.271,292.274 332.329,293.314 332.351 C 293.997 332.366,294.556 332.206,294.556 331.996 C 294.556 331.543,293.892 331.543,292.837 331.996 M290.372 332.929 C 290.121 333.231,289.455 333.549,288.893 333.635 C 287.961 333.778,287.978 333.797,289.093 333.849 C 289.770 333.881,290.452 333.676,290.621 333.389 C 290.789 333.105,291.184 332.775,291.500 332.655 C 291.980 332.474,291.972 332.434,291.451 332.408 C 291.109 332.392,290.623 332.626,290.372 332.929 M285.005 334.295 C 284.690 334.484,282.240 334.749,279.561 334.884 C 274.494 335.139,273.004 335.652,276.982 335.771 C 278.345 335.812,279.274 335.680,279.274 335.446 C 279.274 335.204,280.667 335.053,282.904 335.053 C 285.875 335.053,286.533 334.949,286.533 334.479 C 286.533 333.846,285.885 333.767,285.005 334.295 M86.724 335.053 C 86.290 335.333,86.458 335.424,87.415 335.429 C 88.162 335.432,88.583 335.278,88.443 335.053 C 88.147 334.573,87.467 334.573,86.724 335.053 M96.907 334.957 C 96.746 335.218,109.447 335.212,124.546 334.945 C 127.803 334.888,122.957 334.802,113.776 334.756 C 104.596 334.709,97.004 334.799,96.907 334.957 M145.845 334.957 C 154.093 335.014,167.588 335.014,175.836 334.957 C 184.083 334.899,177.335 334.852,160.840 334.852 C 144.346 334.852,137.598 334.899,145.845 334.957 M191.022 334.957 C 191.023 335.309,209.648 335.274,210.000 334.922 C 210.138 334.784,205.925 334.670,200.637 334.670 C 195.349 334.670,191.022 334.799,191.022 334.957 M217.192 335.144 C 221.606 335.440,240.746 335.374,240.441 335.063 C 240.343 334.964,234.127 334.878,226.626 334.872 C 217.310 334.865,214.321 334.951,217.192 335.144 M244.208 334.880 C 244.513 335.185,273.874 335.231,274.178 334.927 C 274.319 334.786,267.587 334.670,259.217 334.670 C 250.847 334.670,244.093 334.765,244.208 334.880 " stroke="none" fill="#848484" fill-rule="evenodd"></path><path id="path4" d="M80.060 59.946 C 79.684 60.553,79.791 116.326,80.170 117.314 C 80.365 117.825,85.424 123.228,91.411 129.322 C 97.398 135.415,103.525 141.691,105.028 143.266 C 106.530 144.842,111.236 149.675,115.484 154.006 C 119.733 158.336,123.431 162.119,123.702 162.411 C 123.973 162.703,129.045 167.790,134.973 173.715 C 152.543 191.280,155.874 194.698,155.874 195.164 C 155.874 195.407,156.023 195.606,156.204 195.606 C 156.386 195.606,157.632 196.745,158.974 198.135 C 160.316 199.526,161.988 201.203,162.689 201.860 C 163.391 202.518,165.626 204.756,167.656 206.833 C 171.725 210.997,182.730 221.980,183.985 223.129 C 184.897 223.964,284.847 224.370,285.359 223.540 C 285.742 222.921,287.388 222.434,290.773 221.939 C 292.586 221.674,294.694 221.084,295.654 220.574 C 296.583 220.080,297.722 219.675,298.183 219.675 C 298.644 219.675,299.349 219.313,299.750 218.870 C 300.150 218.427,301.262 217.667,302.220 217.181 C 306.383 215.070,314.649 207.166,316.763 203.277 C 317.628 201.685,318.636 200.038,319.003 199.618 C 319.370 199.198,319.780 198.388,319.915 197.819 C 320.049 197.251,320.588 196.323,321.111 195.758 C 321.711 195.110,322.063 194.281,322.063 193.514 C 322.063 192.845,322.492 191.452,323.017 190.418 C 323.628 189.213,323.982 187.853,324.004 186.628 C 324.023 185.578,324.170 183.687,324.332 182.426 C 324.984 177.337,328.261 177.717,283.286 177.660 C 262.273 177.633,244.737 177.535,244.317 177.442 C 243.692 177.304,225.769 176.778,206.495 176.331 C 202.892 176.248,200.191 175.540,200.191 174.680 C 200.191 174.528,199.447 173.629,198.538 172.684 C 197.628 171.738,194.175 168.042,190.864 164.470 C 187.553 160.898,183.784 156.943,182.489 155.681 C 181.193 154.419,179.021 152.098,177.661 150.523 C 176.302 148.948,173.895 146.368,172.313 144.788 C 170.731 143.208,168.063 140.372,166.385 138.484 C 164.706 136.597,161.440 133.075,159.126 130.659 C 156.812 128.243,154.059 125.243,153.009 123.993 C 151.958 122.743,150.153 120.756,148.997 119.577 C 147.841 118.399,145.091 115.564,142.886 113.278 L 138.876 109.122 140.403 108.483 C 141.796 107.899,143.385 107.874,158.548 108.191 C 180.493 108.650,284.416 108.619,285.942 108.153 C 286.582 107.958,287.959 107.682,289.003 107.541 C 290.046 107.399,291.244 107.041,291.666 106.746 C 292.088 106.450,292.831 106.208,293.316 106.208 C 293.802 106.208,295.010 105.801,296.001 105.303 C 296.992 104.804,298.233 104.264,298.758 104.101 C 299.284 103.939,300.245 103.401,300.896 102.906 C 301.546 102.411,302.245 102.006,302.450 102.006 C 302.655 102.006,303.498 101.404,304.324 100.669 C 305.150 99.934,306.038 99.332,306.297 99.332 C 306.556 99.332,308.637 97.483,310.921 95.224 C 314.641 91.545,315.523 90.400,317.431 86.769 C 317.721 86.219,318.346 85.339,318.821 84.814 C 319.296 84.288,319.808 83.429,319.959 82.904 C 320.109 82.378,320.644 81.230,321.148 80.352 C 321.651 79.474,322.063 78.481,322.063 78.144 C 322.063 77.807,322.508 76.474,323.052 75.182 C 324.073 72.756,325.229 61.813,324.629 60.249 C 324.346 59.512,80.515 59.209,80.060 59.946 M323.765 65.330 C 323.751 69.862,323.623 70.877,322.715 73.701 C 322.146 75.468,321.681 77.162,321.681 77.466 C 321.681 77.769,321.273 78.503,320.774 79.096 C 320.274 79.689,319.745 80.818,319.598 81.604 C 319.440 82.444,318.869 83.465,318.213 84.077 C 317.599 84.651,317.096 85.378,317.096 85.693 C 317.096 86.308,314.898 89.879,313.772 91.093 C 313.394 91.500,312.207 92.834,311.134 94.058 C 310.062 95.281,307.870 97.166,306.263 98.247 C 304.657 99.327,303.343 100.354,303.343 100.528 C 303.343 100.702,302.612 101.211,301.719 101.660 C 300.826 102.109,299.807 102.730,299.455 103.039 C 299.103 103.349,298.243 103.752,297.545 103.935 C 295.314 104.521,291.346 105.866,290.153 106.442 C 287.855 107.551,278.118 107.674,209.526 107.457 C 145.137 107.253,140.186 107.283,139.277 107.878 C 137.768 108.867,138.048 109.486,141.643 113.112 C 149.259 120.794,152.280 123.980,152.898 124.982 C 153.257 125.565,155.685 128.241,158.295 130.929 C 160.904 133.617,163.877 136.748,164.901 137.886 C 167.183 140.422,167.994 141.289,173.066 146.608 C 175.272 148.922,177.713 151.567,178.489 152.485 C 179.266 153.403,182.188 156.505,184.984 159.377 C 187.779 162.249,190.914 165.642,191.950 166.918 C 192.985 168.194,194.146 169.337,194.529 169.458 C 194.911 169.580,195.224 169.845,195.224 170.048 C 195.224 170.251,195.783 170.977,196.466 171.661 C 197.149 172.346,198.395 173.712,199.236 174.697 C 200.967 176.726,202.833 177.313,207.450 177.282 C 208.816 177.273,217.068 177.427,225.788 177.624 C 242.859 178.010,302.911 178.797,315.291 178.797 C 324.407 178.797,323.831 178.359,323.294 184.888 C 323.017 188.247,322.798 189.289,322.309 189.562 C 321.865 189.811,321.681 190.441,321.681 191.713 C 321.681 193.108,321.464 193.747,320.718 194.552 C 320.188 195.123,319.643 196.149,319.507 196.832 C 319.370 197.514,318.941 198.335,318.552 198.654 C 317.798 199.276,316.880 200.803,315.506 203.725 C 315.037 204.723,314.386 205.546,314.060 205.554 C 313.734 205.561,312.987 206.326,312.400 207.252 C 311.813 208.179,311.012 209.039,310.619 209.163 C 310.227 209.288,309.629 209.813,309.290 210.330 C 308.951 210.847,308.437 211.270,308.147 211.270 C 307.857 211.270,307.440 211.786,307.221 212.416 C 307.001 213.047,306.567 213.563,306.256 213.563 C 305.945 213.563,305.350 213.996,304.933 214.526 C 304.516 215.055,303.370 215.731,302.386 216.027 C 300.498 216.596,299.140 217.568,299.140 218.353 C 299.140 218.638,298.291 218.929,296.990 219.092 C 295.433 219.286,294.603 219.615,293.985 220.282 C 293.308 221.013,292.745 221.204,291.265 221.206 C 288.588 221.209,285.154 221.832,283.739 222.572 C 282.626 223.154,278.391 223.223,234.506 223.373 L 186.490 223.538 184.267 221.993 C 183.044 221.144,178.520 216.809,174.212 212.359 C 164.850 202.689,158.287 196.156,157.130 195.357 C 156.666 195.037,156.190 194.472,156.073 194.102 C 155.955 193.733,155.433 193.236,154.911 192.998 C 154.390 192.761,153.964 192.348,153.965 192.081 C 153.966 191.814,153.028 190.649,151.880 189.494 C 150.732 188.338,144.155 181.761,137.265 174.879 C 130.375 167.996,124.565 162.174,124.355 161.939 C 122.246 159.590,110.413 147.851,110.153 147.851 C 109.965 147.851,109.525 147.367,109.175 146.774 C 108.826 146.182,105.335 142.443,101.419 138.465 C 88.330 125.170,82.533 119.161,81.551 117.874 L 80.577 116.598 80.601 88.623 C 80.615 73.237,80.719 60.498,80.832 60.314 C 80.950 60.124,133.243 60.021,202.411 60.076 L 323.782 60.172 323.765 65.330 M80.064 195.947 C 79.422 196.985,79.821 333.245,80.468 333.959 C 81.108 334.667,83.419 334.680,182.204 334.571 C 289.017 334.452,286.433 334.496,290.162 332.748 C 291.003 332.354,292.518 331.849,293.529 331.625 C 294.541 331.401,295.788 330.943,296.300 330.608 C 296.813 330.272,297.661 330.079,298.186 330.180 C 298.711 330.280,299.140 330.240,299.140 330.091 C 299.140 329.514,300.524 328.286,301.433 328.058 C 301.958 327.926,302.853 327.382,303.422 326.851 C 303.990 326.319,304.573 325.883,304.716 325.883 C 304.972 325.883,306.823 324.286,310.220 321.133 C 312.827 318.713,316.332 314.600,316.332 313.961 C 316.332 313.650,316.676 313.083,317.096 312.703 C 317.517 312.323,317.861 311.810,317.861 311.564 C 317.861 311.318,318.294 310.710,318.823 310.213 C 319.383 309.687,319.885 308.686,320.024 307.819 C 320.155 306.999,320.641 305.872,321.106 305.313 C 321.570 304.755,322.040 303.601,322.151 302.749 C 322.262 301.896,322.794 300.263,323.334 299.119 C 324.660 296.309,324.957 288.300,323.767 287.430 C 323.173 286.995,306.937 286.912,224.279 286.918 L 125.501 286.926 124.836 285.691 C 124.225 284.557,124.172 282.613,124.177 261.821 L 124.182 239.186 123.314 238.158 C 121.276 235.749,118.902 233.218,117.479 231.937 C 116.638 231.182,115.177 229.744,114.231 228.743 C 113.286 227.742,111.501 225.937,110.265 224.732 C 109.030 223.527,107.225 221.709,106.254 220.692 C 98.496 212.564,81.329 195.606,80.859 195.606 C 80.537 195.606,80.180 195.760,80.064 195.947 M82.160 197.424 C 83.094 198.061,84.669 199.623,91.542 206.729 C 93.247 208.491,95.997 211.255,97.655 212.870 C 99.312 214.485,103.354 218.611,106.636 222.039 C 112.872 228.551,113.352 229.038,118.424 234.002 C 120.141 235.683,122.054 237.783,122.673 238.668 L 123.800 240.278 123.761 262.651 C 123.725 283.912,123.758 285.084,124.442 286.256 L 125.162 287.488 224.090 287.679 C 280.267 287.788,323.244 288.016,323.541 288.207 C 324.217 288.643,323.792 295.541,322.950 297.803 C 322.638 298.644,322.156 300.226,321.879 301.320 C 321.602 302.413,321.039 303.788,320.626 304.376 C 320.214 304.963,319.753 306.121,319.602 306.949 C 319.451 307.777,318.988 308.894,318.573 309.432 C 316.163 312.560,315.573 313.425,315.337 314.168 C 314.913 315.503,310.283 320.327,306.301 323.582 C 302.447 326.733,301.579 327.379,300.802 327.677 C 300.414 327.826,299.513 328.343,298.801 328.826 C 298.088 329.309,297.229 329.705,296.890 329.706 C 296.552 329.708,295.816 329.948,295.256 330.240 C 294.695 330.533,293.492 330.894,292.581 331.043 C 291.671 331.192,290.067 331.741,289.016 332.261 C 287.422 333.052,286.253 333.262,281.948 333.535 C 275.346 333.953,81.731 333.999,81.074 333.582 C 80.676 333.330,80.585 320.871,80.598 268.163 C 80.607 232.354,80.614 201.638,80.613 199.904 C 80.611 196.518,80.677 196.412,82.160 197.424 " stroke="none" fill="#747474" fill-rule="evenodd"></path></g></svg>